<svg version="1.1" id="Layer_1" xmlns="http://www.w3.org/2000/svg" xmlns:xlink="http://www.w3.org/1999/xlink" x="0px" y="0px" viewBox="0 0 456.341 456.341" style="enable-background:new 0 0 456.341 456.341;" xml:space="preserve">
<g>
<path d="M453.794,153.339c-2.396-3.17-6.048-4.989-10.021-4.989h-94.135l-20.306-28.014c13.538-5.43,22.755-18.61,22.755-33.739
		V73.339c0-20.054-16.315-36.369-36.369-36.369h-5v44.627h-32.337h-7.291h-83.399h-9.331h-37.087V36.97h-5
		c-20.054,0-36.369,16.315-36.369,36.369v13.258c0,16.522,11.207,30.711,26.575,35.022l-19.376,26.731H12.569
		c-3.974,0-7.626,1.818-10.021,4.989s-3.146,7.181-2.061,11.003l4.187,14.738c5.485,19.309,23.105,32.391,42.839,32.389
		c1.399,0,2.813-0.066,4.23-0.2l34.32-3.25c6.661-0.631,12.836-3.677,17.39-8.578c2.34-2.518,5.381-4.263,8.682-5.044
		l40.696,220.851v4.123h0.76h149.56h0.837v-4.544l40.6-220.33c3.156,0.823,6.057,2.53,8.3,4.944
		c4.554,4.901,10.729,7.947,17.391,8.578l34.32,3.25c21.399,2.021,41.196-11.511,47.07-32.189l4.187-14.738
		C456.941,160.52,456.19,156.509,453.794,153.339z M320.718,91.597V47.446c12.157,2.343,21.369,13.063,21.369,25.894v13.258
		c0,11.84-7.787,22.02-18.889,25.276l-8.223-11.344c-2.4-3.391-5.245-6.376-8.407-8.932H320.718z M187.691,91.597h83.399h7.291
		c11.284,0,21.913,5.499,28.464,14.755l33.469,46.174l-33.289,21.361c-29.128,18.691-46.518,50.512-46.518,85.121v83.273h-64.273
		v-83.273c0-34.609-17.39-66.43-46.518-85.121l-33.289-21.361l33.502-46.22c0.276-0.391,0.57-0.765,0.861-1.142
		c0.2-0.259,0.399-0.52,0.606-0.773c0.224-0.274,0.456-0.539,0.688-0.805c0.228-0.261,0.454-0.524,0.689-0.778
		c0.214-0.232,0.437-0.456,0.657-0.681c0.269-0.275,0.537-0.551,0.814-0.817c0.19-0.182,0.386-0.356,0.579-0.533
		c0.322-0.295,0.645-0.59,0.977-0.872c0.152-0.129,0.309-0.252,0.463-0.378c0.384-0.315,0.771-0.627,1.167-0.925
		c0.106-0.08,0.216-0.155,0.323-0.233c0.451-0.33,0.906-0.655,1.372-0.963c0.056-0.037,0.114-0.072,0.171-0.109
		c0.519-0.339,1.045-0.668,1.581-0.978c0.005-0.003,0.011-0.006,0.016-0.009c3.496-2.025,7.336-3.443,11.341-4.165
		c0.042-0.008,0.084-0.012,0.125-0.019c0.624-0.11,1.252-0.206,1.884-0.282c0.211-0.025,0.425-0.037,0.637-0.058
		c0.467-0.047,0.934-0.098,1.404-0.126c0.689-0.041,1.38-0.063,2.074-0.063H187.691z M109.905,86.597V73.339
		c0-12.831,9.212-23.551,21.369-25.894v44.151h18.892c-0.194,0.157-0.389,0.313-0.581,0.473c-0.051,0.043-0.104,0.083-0.155,0.126
		c-0.563,0.475-1.112,0.969-1.652,1.473c-0.118,0.11-0.238,0.215-0.355,0.326c-0.468,0.446-0.922,0.908-1.371,1.376
		c-0.179,0.186-0.362,0.368-0.538,0.558c-0.38,0.409-0.747,0.832-1.112,1.256c-0.23,0.267-0.462,0.531-0.687,0.803
		c-0.302,0.369-0.593,0.748-0.884,1.127c-0.185,0.24-0.38,0.47-0.561,0.715c-0.168,0.229-0.335,0.459-0.466,0.646
		c-0.001,0.002-0.003,0.003-0.004,0.005l-8.891,12.267C119.894,111.088,109.905,99.883,109.905,86.597z M116.086,183.935
		c-7.547,0-14.821,3.171-19.958,8.699c-2.882,3.102-6.791,5.03-11.007,5.43l-34.32,3.25c-16.599,1.574-31.953-8.928-36.508-24.966
		l-4.187-14.738c-0.303-1.066,0.133-1.863,0.42-2.243c0.287-0.38,0.934-1.017,2.042-1.017h94.417l37.33,23.953
		c26.248,16.843,41.918,45.518,41.918,76.705v83.287c-15.287,0.243-28.144,10.635-32.122,24.723l-33.737-183.082H116.086z
		 M162.831,409.371v-33.143c0-13.205,10.743-23.948,23.948-23.948h83.261c13.205,0,23.948,10.743,23.948,23.948v33.143H162.831z
		 M446.236,161.61l-4.187,14.738c-4.556,16.038-19.909,26.54-36.508,24.966l-34.319-3.25c-4.216-0.4-8.125-2.328-11.008-5.43
		c-5.048-5.433-12.201-8.601-19.625-8.692l-4.215-0.052L302.66,366.852c-4.039-14.027-16.892-24.351-32.153-24.559v-83.285
		c0-31.187,15.67-59.861,41.918-76.705l37.329-23.953h94.018c1.109,0,1.756,0.637,2.042,1.017
		C446.102,159.747,446.538,160.543,446.236,161.61z" id="id_101" style="fill: rgb(255, 255, 255);"></path>
<circle cx="156.359" cy="229.915" r="10.841" id="id_102" style="fill: rgb(255, 255, 255);"></circle>
<circle cx="300.383" cy="229.915" r="10.841" id="id_103" style="fill: rgb(255, 255, 255);"></circle>
<path d="M199.17,372.143c-5.189,0-9.435,4.246-9.435,9.435v4.261c0,5.189,4.246,9.435,9.435,9.435c5.189,0,9.435-4.246,9.435-9.435
		v-4.261C208.605,376.389,204.36,372.143,199.17,372.143z" id="id_104" style="fill: rgb(255, 255, 255);"></path>
<path d="M257.571,372.143c-5.189,0-9.435,4.246-9.435,9.435v4.261c0,5.189,4.246,9.435,9.435,9.435
		c5.189,0,9.435-4.246,9.435-9.435v-4.261C267.006,376.389,262.76,372.143,257.571,372.143z" id="id_105" style="fill: rgb(255, 255, 255);"></path>
</g>
<g>
</g>
<g>
</g>
<g>
</g>
<g>
</g>
<g>
</g>
<g>
</g>
<g>
</g>
<g>
</g>
<g>
</g>
<g>
</g>
<g>
</g>
<g>
</g>
<g>
</g>
<g>
</g>
<g>
</g>
</svg>