<svg xmlns="http://www.w3.org/2000/svg" viewBox="0 0 64 64"><g id="Layer_25" data-name="Layer 25"><path d="M60,3H56.71a1,1,0,0,0-1,1V20.43H53V8.68a1,1,0,0,0-1-1H38.35a1,1,0,0,0-1,1V20.43H34.64V4a1,1,0,0,0-1-1H30.36a1,1,0,0,0-1,1V20.43H26.64V8.68a1,1,0,0,0-1-1H12a1,1,0,0,0-1,1V20.43H8.29V4a1,1,0,0,0-1-1H4A1,1,0,0,0,3,4V60a1,1,0,0,0,1,1H7.29a1,1,0,0,0,1-1V55.71H29.36V60a1,1,0,0,0,1,1h3.28a1,1,0,0,0,1-1V55.71H55.71V60a1,1,0,0,0,1,1H60a1,1,0,0,0,1-1V4A1,1,0,0,0,60,3ZM44,9.68h2.28v2l-.56-.4a1,1,0,0,0-1.15,0l-.57.4Zm-4.68,0H42v3.9a1,1,0,0,0,.54.89,1.07,1.07,0,0,0,.46.11.94.94,0,0,0,.58-.19l1.56-1.11,1.56,1.11a1,1,0,0,0,1,.08,1,1,0,0,0,.54-.89V9.68H51V20.43H39.35Zm-21.67,0H20v2l-.56-.4a1,1,0,0,0-1.16,0l-.56.4ZM13,9.68h2.68v3.9a1,1,0,0,0,.54.89,1,1,0,0,0,.46.11,1,1,0,0,0,.58-.19l1.56-1.11,1.56,1.11a1,1,0,0,0,1,.08,1,1,0,0,0,.54-.89V9.68h2.68V20.43H13ZM55.71,22.43V37.07H53V25.32a1,1,0,0,0-1-1H38.35a1,1,0,0,0-1,1V37.07H34.64V22.43ZM44,26.32h2.28v2l-.55-.4a1,1,0,0,0-1.16,0l-.57.4Zm-1.46,4.79a1.07,1.07,0,0,0,.46.11,1,1,0,0,0,.58-.18l1.56-1.11L46.73,31a1,1,0,0,0,1.58-.81v-3.9H51V37.07H39.35V26.32H42v3.9A1,1,0,0,0,42.57,31.11ZM29.36,22.43V37.07H26.64V25.32a1,1,0,0,0-1-1H12a1,1,0,0,0-1,1V37.07H8.29V22.43ZM17.68,26.32H20v2l-.56-.4a1,1,0,0,0-1.16,0l-.56.4Zm-1.46,4.79a1,1,0,0,0,1-.07l1.56-1.11L20.38,31A1,1,0,0,0,22,30.22v-3.9h2.68V37.07H13V26.32h2.68v3.9A1,1,0,0,0,16.22,31.11ZM6.29,59H5V5H6.29ZM13,53.71V43h2.68v3.9a1,1,0,0,0,.54.89,1,1,0,0,0,1-.07l1.56-1.11,1.56,1.1a.94.94,0,0,0,.58.19,1.11,1.11,0,0,0,.46-.11,1,1,0,0,0,.54-.89V43h2.68V53.71ZM17.68,43H20v2l-.56-.4a1,1,0,0,0-1.16,0l-.56.4Zm9,10.75V42a1,1,0,0,0-1-1H12a1,1,0,0,0-1,1V53.71H8.29V39.07H29.36V53.71Zm6,5.29H31.36V5h1.28Zm6.71-5.29V43H42v3.9a1,1,0,0,0,.54.89,1,1,0,0,0,1-.07l1.56-1.11,1.56,1.1a1,1,0,0,0,.58.19,1.07,1.07,0,0,0,.46-.11,1,1,0,0,0,.54-.89V43H51V53.71ZM44,43h2.28v2l-.56-.4a1,1,0,0,0-1.15,0l-.57.4Zm9,10.75V42a1,1,0,0,0-1-1H38.35a1,1,0,0,0-1,1V53.71H34.64V39.07H55.71V53.71ZM59,59H57.71V5H59Z" id="id_101" style="fill: rgb(255, 255, 255);"></path></g></svg>